<svg xmlns="http://www.w3.org/2000/svg" viewBox="0 0 64 64" shape-rendering="crispEdges">
  <style>
    .c { fill: #00f0ff }
    .m { fill: #ff00ff }
    .g { fill: #00ff41 }
  </style>
  <!-- D letter (left) — cyan pixel grid -->
  <rect class="c" x="8" y="12" width="6" height="4"/>
  <rect class="c" x="8" y="16" width="4" height="2"/>
  <rect class="c" x="8" y="18" width="4" height="2"/>
  <rect class="c" x="8" y="20" width="4" height="2"/>
  <rect class="c" x="8" y="22" width="4" height="2"/>
  <rect class="c" x="8" y="24" width="4" height="2"/>
  <rect class="c" x="8" y="26" width="4" height="2"/>
  <rect class="c" x="8" y="28" width="4" height="2"/>
  <rect class="c" x="8" y="30" width="4" height="2"/>
  <rect class="c" x="8" y="32" width="4" height="2"/>
  <rect class="c" x="8" y="34" width="4" height="2"/>
  <rect class="c" x="8" y="36" width="4" height="2"/>
  <rect class="c" x="8" y="38" width="6" height="4"/>
  <rect class="c" x="14" y="14" width="4" height="2"/>
  <rect class="c" x="14" y="36" width="4" height="2"/>
  <rect class="c" x="18" y="16" width="4" height="2"/>
  <rect class="c" x="18" y="34" width="4" height="2"/>
  <rect class="c" x="22" y="18" width="4" height="2"/>
  <rect class="c" x="22" y="32" width="4" height="2"/>
  <rect class="c" x="26" y="20" width="4" height="2"/>
  <rect class="c" x="26" y="28" width="4" height="4"/>
  <!-- Sparkle pixels -->
  <rect class="g" x="30" y="12" width="2" height="2"/>
  <rect class="g" x="34" y="10" width="2" height="2"/>
  <rect class="c" x="38" y="8" width="2" height="2"/>
  <rect class="m" x="16" y="8" width="2" height="2"/>
  <rect class="g" x="56" y="10" width="2" height="2"/>
</svg>
